<svg width="93" height="92" viewBox="0 0 93 92" fill="none" xmlns="http://www.w3.org/2000/svg">
<path d="M83.2886 85.0982C81.4967 85.0982 79.9553 84.7514 78.6643 84.0578C77.3734 83.3641 76.3811 82.42 75.6874 81.2254C74.9938 80.0115 74.647 78.6242 74.647 77.0636C74.647 75.9075 74.8397 74.8381 75.225 73.8555C75.6104 72.8728 76.1499 72.025 76.8435 71.3121C77.5564 70.5799 78.3849 70.0212 79.3291 69.6358C80.2924 69.2312 81.3425 69.0289 82.4793 69.0289C83.6161 69.0289 84.647 69.2312 85.5718 69.6358C86.5159 70.0212 87.3252 70.5799 87.9996 71.3121C88.6739 72.025 89.1845 72.8728 89.5314 73.8555C89.8975 74.8381 90.0612 75.9075 90.0227 77.0636L89.9938 78.2774H77.884L77.2192 75.5318H85.3406L84.7915 76.1098V75.5896C84.7915 75.2235 84.6951 74.9056 84.5025 74.6358C84.3291 74.3468 84.0786 74.1252 83.751 73.9711C83.4235 73.8169 83.0381 73.7399 82.5949 73.7399C82.0362 73.7399 81.5641 73.8555 81.1788 74.0867C80.7934 74.3179 80.4948 74.6454 80.2828 75.0693C80.0901 75.4932 79.9938 76.0038 79.9938 76.6011C79.9938 77.2948 80.1383 77.9017 80.4273 78.4219C80.7356 78.9422 81.1788 79.3468 81.7568 79.6358C82.3541 79.9248 83.0863 80.0693 83.9533 80.0693C84.5314 80.0693 85.0227 80.0019 85.4273 79.867C85.8512 79.7129 86.2944 79.472 86.7568 79.1445L89.4447 82.9306C88.7318 83.4894 88.0285 83.9229 87.3348 84.2312C86.6605 84.5395 85.9861 84.761 85.3117 84.8959C84.6566 85.0308 83.9822 85.0982 83.2886 85.0982Z" fill="white"/>
<path d="M66.7933 85.0982C65.2326 85.0982 63.8357 84.7514 62.6025 84.0578C61.3886 83.3641 60.4252 82.42 59.7123 81.2254C59.0187 80.0115 58.6719 78.6242 58.6719 77.0636C58.6719 75.5029 59.0187 74.1252 59.7123 72.9306C60.4252 71.7167 61.3886 70.763 62.6025 70.0693C63.8357 69.3757 65.2326 69.0289 66.7933 69.0289C68.1805 69.0289 69.4619 69.2408 70.6372 69.6647C71.8125 70.0886 72.7663 70.7052 73.4985 71.5144L70.3193 75.2716C70.1073 75.0404 69.8568 74.8285 69.5678 74.6358C69.2788 74.4431 68.9513 74.2986 68.5852 74.2023C68.2191 74.0867 67.7952 74.0289 67.3135 74.0289C66.7355 74.0289 66.2249 74.1541 65.7817 74.4046C65.3578 74.6551 65.0303 75.0115 64.799 75.474C64.5678 75.9171 64.4522 76.4373 64.4522 77.0347C64.4522 77.6127 64.5582 78.1329 64.7701 78.5953C65.0014 79.0385 65.3289 79.395 65.7528 79.6647C66.196 79.9345 66.7162 80.0693 67.3135 80.0693C67.7952 80.0693 68.2191 80.0212 68.5852 79.9248C68.9513 79.8285 69.2788 79.6936 69.5678 79.5202C69.8568 79.3275 70.1073 79.1059 70.3193 78.8555L73.4696 82.6416C72.7567 83.4316 71.8125 84.0385 70.6372 84.4624C69.4619 84.8863 68.1805 85.0982 66.7933 85.0982Z" fill="white"/>
<path d="M45.7322 85.0693C44.4413 85.0693 43.2948 84.7321 42.2929 84.0578C41.291 83.3641 40.501 82.42 39.923 81.2254C39.3449 80.0115 39.0559 78.6242 39.0559 77.0636C39.0559 75.4836 39.3353 74.0963 39.8941 72.9017C40.4721 71.6878 41.2621 70.7437 42.264 70.0693C43.2852 69.3757 44.4605 69.0289 45.79 69.0289C46.4837 69.0289 47.1195 69.1252 47.6975 69.3179C48.2756 69.5106 48.7862 69.7803 49.2293 70.1271C49.6725 70.474 50.0578 70.8786 50.3854 71.341C50.7129 71.7842 50.9923 72.2659 51.2235 72.7861L50.0386 72.7572V69.3468H55.79V84.8092H49.8941V81.0231L51.1946 81.1387C51.002 81.6975 50.7322 82.2177 50.3854 82.6994C50.0578 83.1811 49.6628 83.5953 49.2004 83.9422C48.738 84.289 48.2178 84.5684 47.6397 84.7803C47.0617 84.973 46.4259 85.0693 45.7322 85.0693ZM47.4085 80.3005C47.9673 80.3005 48.4393 80.1753 48.8247 79.9248C49.2293 79.6743 49.528 79.3082 49.7206 78.8266C49.9326 78.3449 50.0386 77.7572 50.0386 77.0636C50.0386 76.3699 49.9326 75.7822 49.7206 75.3005C49.528 74.7996 49.2293 74.4239 48.8247 74.1734C48.4393 73.9229 47.9673 73.7977 47.4085 73.7977C46.8497 73.7977 46.3777 73.9229 45.9923 74.1734C45.607 74.4239 45.3083 74.7996 45.0964 75.3005C44.9037 75.7822 44.8074 76.3699 44.8074 77.0636C44.8074 77.7572 44.9037 78.3449 45.0964 78.8266C45.3083 79.3082 45.607 79.6743 45.9923 79.9248C46.3777 80.1753 46.8497 80.3005 47.4085 80.3005Z" fill="white"/>
<path d="M20.5962 91.1676V69.3468H26.0297L26.3476 72.7572L25.1627 72.4971C25.2975 71.8227 25.6251 71.2254 26.1453 70.7052C26.6656 70.1849 27.3207 69.7803 28.1106 69.4913C28.9199 69.183 29.7966 69.0289 30.7407 69.0289C32.0124 69.0289 33.1395 69.3757 34.1222 70.0693C35.1241 70.7437 35.9045 71.6878 36.4632 72.9017C37.0413 74.0963 37.3303 75.4836 37.3303 77.0636C37.3303 78.6242 37.0413 80.0115 36.4632 81.2254C35.8852 82.42 35.0856 83.3641 34.0644 84.0578C33.0625 84.7321 31.9064 85.0693 30.5962 85.0693C29.7291 85.0693 28.9103 84.9152 28.1395 84.6069C27.3881 84.2986 26.7523 83.8747 26.232 83.3352C25.7118 82.7765 25.365 82.1406 25.1916 81.4277L26.4921 81.0231V91.1676H20.5962ZM28.9777 80.3005C29.5365 80.3005 30.0085 80.1753 30.3939 79.9248C30.7792 79.6743 31.0683 79.3082 31.2609 78.8266C31.4729 78.3449 31.5788 77.7572 31.5788 77.0636C31.5788 76.3699 31.4729 75.7822 31.2609 75.3005C31.0683 74.7996 30.7792 74.4239 30.3939 74.1734C30.0085 73.9229 29.5365 73.7977 28.9777 73.7977C28.4189 73.7977 27.9372 73.9229 27.5326 74.1734C27.1473 74.4239 26.8486 74.7996 26.6367 75.3005C26.444 75.7822 26.3476 76.3699 26.3476 77.0636C26.3476 77.7572 26.444 78.3449 26.6367 78.8266C26.8486 79.3082 27.1473 79.6743 27.5326 79.9248C27.9372 80.1753 28.4189 80.3005 28.9777 80.3005Z" fill="white"/>
<path d="M9.45087 85.0983C7.92871 85.0983 6.57996 84.9345 5.40462 84.6069C4.24855 84.2601 3.22736 83.7784 2.34104 83.1618C1.47399 82.5453 0.693642 81.8227 0 80.9942L3.61272 76.948C4.57611 78.1811 5.57803 79 6.6185 79.4046C7.67823 79.79 8.67052 79.9827 9.59537 79.9827C9.96146 79.9827 10.289 79.9538 10.578 79.8959C10.8671 79.8189 11.0886 79.7033 11.2428 79.5491C11.3969 79.395 11.474 79.183 11.474 78.9133C11.474 78.6628 11.3873 78.4509 11.2139 78.2775C11.0597 78.104 10.8478 77.9595 10.578 77.8439C10.3083 77.7091 10.0096 77.6031 9.68208 77.526C9.37379 77.4297 9.06551 77.3526 8.75723 77.2948C8.46821 77.237 8.20809 77.1792 7.97688 77.1214C6.82081 76.8516 5.80925 76.5241 4.9422 76.1387C4.07514 75.7534 3.3526 75.2909 2.77457 74.7514C2.19653 74.2119 1.76301 73.5954 1.47399 72.9017C1.20424 72.2081 1.06936 71.4277 1.06936 70.5607C1.06936 69.578 1.29094 68.6821 1.7341 67.8728C2.19653 67.0636 2.80347 66.3699 3.55491 65.7919C4.32563 65.2139 5.19268 64.7707 6.15607 64.4624C7.13873 64.1541 8.15029 64 9.19075 64C10.7129 64 11.9846 64.1445 13.0058 64.4335C14.027 64.7033 14.8844 65.0983 15.578 65.6185C16.2717 66.1387 16.869 66.7457 17.3699 67.4393L13.7283 70.9364C13.3044 70.5318 12.8613 70.2042 12.3988 69.9538C11.9364 69.684 11.4547 69.4913 10.9538 69.3757C10.4721 69.2408 9.99037 69.1734 9.50867 69.1734C9.06551 69.1734 8.68979 69.2119 8.3815 69.289C8.07322 69.3468 7.83237 69.4528 7.65896 69.6069C7.48555 69.7418 7.39884 69.9345 7.39884 70.185C7.39884 70.4354 7.50482 70.6474 7.71676 70.8208C7.94798 70.975 8.22736 71.1098 8.55491 71.2254C8.90173 71.341 9.23892 71.4374 9.56647 71.5144C9.91329 71.5723 10.2023 71.6204 10.4335 71.659C11.4933 71.8516 12.4663 72.1214 13.3526 72.4682C14.2389 72.7958 15.0096 73.2197 15.6647 73.7399C16.3391 74.2408 16.8497 74.8767 17.1965 75.6474C17.5626 76.3988 17.7457 77.2948 17.7457 78.3353C17.7457 79.8189 17.3699 81.0617 16.6185 82.0636C15.8863 83.0655 14.894 83.8266 13.6416 84.3468C12.3892 84.8478 10.9923 85.0983 9.45087 85.0983Z" fill="white"/>
<path d="M62.7351 49.8092V34.3468H68.1686L68.4577 37.4682L67.2149 37.815C67.4268 37.0828 67.8025 36.4374 68.342 35.8786C68.9008 35.3005 69.5656 34.8478 70.3363 34.5202C71.107 34.1926 71.9259 34.0289 72.7929 34.0289C73.949 34.0289 74.9316 34.2697 75.7409 34.7514C76.5501 35.2331 77.1571 35.946 77.5617 36.8901C77.9856 37.815 78.1975 38.9422 78.1975 40.2716V49.8092H72.3305V40.763C72.3305 40.3391 72.263 39.9826 72.1282 39.6936C71.9933 39.4046 71.791 39.183 71.5212 39.0289C71.2515 38.8747 70.9336 38.7977 70.5675 38.7977C70.2785 38.7977 70.0087 38.8458 69.7582 38.9422C69.527 39.0192 69.3247 39.1445 69.1513 39.3179C68.9779 39.4913 68.843 39.684 68.7467 39.8959C68.6503 40.1079 68.6022 40.3487 68.6022 40.6185V49.8092H65.6831C64.9509 49.8092 64.3343 49.8092 63.8334 49.8092C63.3517 49.8092 62.9856 49.8092 62.7351 49.8092Z" fill="white"/>
<path d="M53.2859 50.0982C51.494 50.0982 49.9526 49.7514 48.6616 49.0578C47.3707 48.3641 46.3784 47.42 45.6848 46.2254C44.9911 45.0115 44.6443 43.6242 44.6443 42.0636C44.6443 40.9075 44.837 39.8381 45.2223 38.8555C45.6077 37.8728 46.1472 37.025 46.8408 36.3121C47.5537 35.5799 48.3822 35.0212 49.3264 34.6358C50.2898 34.2312 51.3399 34.0289 52.4767 34.0289C53.6135 34.0289 54.6443 34.2312 55.5691 34.6358C56.5133 35.0212 57.3225 35.5799 57.9969 36.3121C58.6713 37.025 59.1819 37.8728 59.5287 38.8555C59.8948 39.8381 60.0585 40.9075 60.02 42.0636L59.9911 43.2774H47.8813L47.2165 40.5318H55.3379L54.7888 41.1098V40.5896C54.7888 40.2235 54.6925 39.9056 54.4998 39.6358C54.3264 39.3468 54.0759 39.1252 53.7483 38.9711C53.4208 38.8169 53.0354 38.7399 52.5923 38.7399C52.0335 38.7399 51.5614 38.8555 51.1761 39.0867C50.7907 39.3179 50.4921 39.6454 50.2801 40.0693C50.0874 40.4932 49.9911 41.0038 49.9911 41.6011C49.9911 42.2948 50.1356 42.9017 50.4246 43.4219C50.7329 43.9422 51.1761 44.3468 51.7541 44.6358C52.3514 44.9248 53.0836 45.0693 53.9506 45.0693C54.5287 45.0693 55.02 45.0019 55.4246 44.867C55.8485 44.7129 56.2917 44.472 56.7541 44.1445L59.442 47.9306C58.7291 48.4894 58.0258 48.9229 57.3321 49.2312C56.6578 49.5395 55.9834 49.761 55.309 49.8959C54.6539 50.0308 53.9795 50.0982 53.2859 50.0982Z" fill="white"/>
<path d="M26.1846 56.1676V34.3468H31.6181L31.936 37.7572L30.751 37.4971C30.8859 36.8227 31.2135 36.2254 31.7337 35.7052C32.2539 35.1849 32.909 34.7803 33.699 34.4913C34.5083 34.183 35.385 34.0289 36.3291 34.0289C37.6008 34.0289 38.7279 34.3757 39.7106 35.0693C40.7125 35.7437 41.4929 36.6878 42.0516 37.9017C42.6297 39.0963 42.9187 40.4836 42.9187 42.0636C42.9187 43.6242 42.6297 45.0115 42.0516 46.2254C41.4736 47.42 40.674 48.3641 39.6528 49.0578C38.6509 49.7321 37.4948 50.0693 36.1846 50.0693C35.3175 50.0693 34.4986 49.9152 33.7279 49.6069C32.9765 49.2986 32.3406 48.8747 31.8204 48.3352C31.3002 47.7765 30.9534 47.1406 30.7799 46.4277L32.0805 46.0231V56.1676H26.1846ZM34.5661 45.3005C35.1248 45.3005 35.5969 45.1753 35.9823 44.9248C36.3676 44.6743 36.6566 44.3083 36.8493 43.8266C37.0613 43.3449 37.1672 42.7572 37.1672 42.0636C37.1672 41.3699 37.0613 40.7822 36.8493 40.3005C36.6566 39.7996 36.3676 39.4239 35.9823 39.1734C35.5969 38.9229 35.1248 38.7977 34.5661 38.7977C34.0073 38.7977 33.5256 38.9229 33.121 39.1734C32.7356 39.4239 32.437 39.7996 32.225 40.3005C32.0324 40.7822 31.936 41.3699 31.936 42.0636C31.936 42.7572 32.0324 43.3449 32.225 43.8266C32.437 44.3083 32.7356 44.6743 33.121 44.9248C33.5256 45.1753 34.0073 45.3005 34.5661 45.3005Z" fill="white"/>
<path d="M12.1387 50.0983C10.5395 50.0983 9.07514 49.8381 7.74566 49.3179C6.41618 48.7977 5.26011 48.0655 4.27745 47.1214C3.29479 46.1773 2.53371 45.0597 1.99421 43.7688C1.47398 42.4778 1.21387 41.0713 1.21387 39.5491C1.21387 38.0077 1.47398 36.6012 1.99421 35.3295C2.53371 34.0385 3.29479 32.921 4.27745 31.9769C5.26011 31.0328 6.41618 30.3006 7.74566 29.7803C9.07514 29.2601 10.5299 29 12.1098 29C13.709 29 15.1638 29.2601 16.474 29.7803C17.8035 30.3006 18.9595 31.0328 19.9422 31.9769C20.9248 32.921 21.6763 34.0385 22.1965 35.3295C22.736 36.6012 23.0058 37.9981 23.0058 39.5202C23.0058 41.0617 22.736 42.4778 22.1965 43.7688C21.6763 45.0597 20.9248 46.1773 19.9422 47.1214C18.9595 48.0655 17.8035 48.7977 16.474 49.3179C15.1638 49.8381 13.7187 50.0983 12.1387 50.0983ZM12.1098 44.3179C12.7649 44.3179 13.3622 44.2023 13.9017 43.9711C14.4605 43.7399 14.9422 43.4123 15.3468 42.9884C15.7707 42.5453 16.0886 42.0347 16.3006 41.4566C16.5318 40.8786 16.6474 40.2428 16.6474 39.5491C16.6474 38.8555 16.5318 38.2196 16.3006 37.6416C16.0886 37.0636 15.7707 36.5626 15.3468 36.1387C14.9422 35.6956 14.4605 35.3584 13.9017 35.1272C13.3622 34.896 12.7649 34.7803 12.1098 34.7803C11.4547 34.7803 10.8478 34.896 10.289 35.1272C9.74951 35.3584 9.26782 35.6956 8.84392 36.1387C8.4393 36.5626 8.12138 37.0636 7.89017 37.6416C7.67822 38.2196 7.57225 38.8555 7.57225 39.5491C7.57225 40.2428 7.67822 40.8786 7.89017 41.4566C8.12138 42.0347 8.4393 42.5453 8.84392 42.9884C9.26782 43.4123 9.74951 43.7399 10.289 43.9711C10.8478 44.2023 11.4547 44.3179 12.1098 44.3179Z" fill="white"/>
<path d="M84.5431 20.8092V1.44507H90.4102V20.8092H84.5431ZM82.1443 10.2601V5.3468H92.9535V10.2601H82.1443Z" fill="white"/>
<path d="M68.916 20.8092V5.34679H74.3495L74.6964 10.4913L73.3958 9.68205C73.6463 8.79573 74.0413 8.00575 74.5808 7.31211C75.1203 6.5992 75.7657 6.04043 76.5172 5.6358C77.2879 5.23118 78.1068 5.02887 78.9738 5.02887C79.3206 5.02887 79.6482 5.05777 79.9565 5.11557C80.2648 5.15411 80.5634 5.21191 80.8524 5.28898L79.2339 11.7919C79.0413 11.657 78.733 11.5318 78.3091 11.4162C77.9045 11.3005 77.4613 11.2427 76.9796 11.2427C76.6328 11.2427 76.3149 11.3005 76.0258 11.4162C75.7561 11.5125 75.5249 11.6666 75.3322 11.8786C75.1588 12.0905 75.0239 12.341 74.9276 12.63C74.8312 12.919 74.7831 13.2562 74.7831 13.6416V20.8092H68.916Z" fill="white"/>
<path d="M54.8203 21.0693C53.5294 21.0693 52.383 20.7321 51.381 20.0578C50.3791 19.3641 49.5891 18.42 49.0111 17.2254C48.4331 16.0115 48.144 14.6242 48.144 13.0635C48.144 11.4836 48.4234 10.0963 48.9822 8.9017C49.5602 7.68783 50.3502 6.7437 51.3521 6.06933C52.3733 5.37569 53.5487 5.02887 54.8781 5.02887C55.5718 5.02887 56.2076 5.12521 56.7857 5.31789C57.3637 5.51056 57.8743 5.78031 58.3175 6.12713C58.7606 6.47395 59.146 6.87858 59.4735 7.34101C59.8011 7.78417 60.0805 8.26586 60.3117 8.78609L59.1267 8.75719V5.34679H64.8781V20.8092H58.9822V17.0231L60.2828 17.1387C60.0901 17.6975 59.8203 18.2177 59.4735 18.6994C59.146 19.1811 58.751 19.5953 58.2886 19.9422C57.8261 20.289 57.3059 20.5684 56.7279 20.7803C56.1498 20.973 55.514 21.0693 54.8203 21.0693ZM56.4966 16.3005C57.0554 16.3005 57.5275 16.1753 57.9128 15.9248C58.3175 15.6743 58.6161 15.3082 58.8088 14.8266C59.0207 14.3449 59.1267 13.7572 59.1267 13.0635C59.1267 12.3699 59.0207 11.7822 58.8088 11.3005C58.6161 10.7996 58.3175 10.4239 57.9128 10.1734C57.5275 9.92289 57.0554 9.79765 56.4966 9.79765C55.9379 9.79765 55.4658 9.92289 55.0805 10.1734C54.6951 10.4239 54.3964 10.7996 54.1845 11.3005C53.9918 11.7822 53.8955 12.3699 53.8955 13.0635C53.8955 13.7572 53.9918 14.3449 54.1845 14.8266C54.3964 15.3082 54.6951 15.6743 55.0805 15.9248C55.4658 16.1753 55.9379 16.3005 56.4966 16.3005Z" fill="white"/>
<path d="M20.5962 20.8092V5.34679H26.0297L26.2609 7.77453L25.5962 7.54332C25.8852 7.04236 26.2128 6.63773 26.5789 6.32945C26.9642 6.00189 27.3688 5.74178 27.7927 5.5491C28.2166 5.35642 28.6501 5.22155 29.0933 5.14447C29.5365 5.0674 29.9604 5.02887 30.365 5.02887C31.0394 5.02887 31.6752 5.12521 32.2725 5.31789C32.8698 5.4913 33.4093 5.80922 33.891 6.27164C34.3727 6.73407 34.7773 7.39881 35.1049 8.26586L34.2089 8.23696L34.4401 7.83234C34.7291 7.33137 35.076 6.90748 35.4806 6.56066C35.8852 6.21384 36.3284 5.92482 36.8101 5.69361C37.2918 5.46239 37.7831 5.29862 38.284 5.20228C38.785 5.08667 39.2667 5.02887 39.7291 5.02887C41.0008 5.02887 42.0702 5.26972 42.9372 5.75141C43.8043 6.23311 44.4498 6.94602 44.8736 7.89014C45.3168 8.81499 45.5384 9.94216 45.5384 11.2716V20.8092H39.6713V11.763C39.6713 11.3391 39.6039 10.9826 39.469 10.6936C39.3341 10.4046 39.1318 10.183 38.8621 10.0289C38.6116 9.87473 38.3033 9.79765 37.9372 9.79765C37.6482 9.79765 37.3785 9.84582 37.128 9.94216C36.8968 10.0192 36.6945 10.1445 36.521 10.3179C36.3669 10.4913 36.2417 10.684 36.1453 10.8959C36.049 11.1079 36.0008 11.3487 36.0008 11.6185V20.8092H30.1338V11.763C30.1338 11.3391 30.0663 10.9826 29.9315 10.6936C29.7966 10.4046 29.5943 10.183 29.3245 10.0289C29.074 9.87473 28.7657 9.79765 28.3997 9.79765C28.1106 9.79765 27.8409 9.84582 27.5904 9.94216C27.3592 10.0192 27.1569 10.1445 26.9835 10.3179C26.8293 10.4913 26.7041 10.684 26.6078 10.8959C26.5114 11.1079 26.4632 11.3487 26.4632 11.6185V20.8092H20.5962Z" fill="white"/>
<path d="M9.45087 21.0983C7.92871 21.0983 6.57996 20.9345 5.40462 20.6069C4.24855 20.2601 3.22736 19.7784 2.34104 19.1618C1.47399 18.5453 0.693642 17.8227 0 16.9942L3.61272 12.948C4.57611 14.1811 5.57803 15 6.6185 15.4046C7.67823 15.79 8.67052 15.9827 9.59537 15.9827C9.96146 15.9827 10.289 15.9538 10.578 15.896C10.8671 15.8189 11.0886 15.7033 11.2428 15.5491C11.3969 15.395 11.474 15.183 11.474 14.9133C11.474 14.6628 11.3873 14.4509 11.2139 14.2775C11.0597 14.104 10.8478 13.9595 10.578 13.8439C10.3083 13.7091 10.0096 13.6031 9.68208 13.526C9.37379 13.4297 9.06551 13.3526 8.75723 13.2948C8.46821 13.237 8.20809 13.1792 7.97688 13.1214C6.82081 12.8516 5.80925 12.5241 4.9422 12.1387C4.07514 11.7534 3.3526 11.2909 2.77457 10.7514C2.19653 10.2119 1.76301 9.59537 1.47399 8.90173C1.20424 8.20809 1.06936 7.42774 1.06936 6.56069C1.06936 5.57803 1.29094 4.68208 1.7341 3.87283C2.19653 3.06358 2.80347 2.36994 3.55491 1.79191C4.32563 1.21387 5.19268 0.770713 6.15607 0.462427C7.13873 0.154143 8.15029 0 9.19075 0C10.7129 0 11.9846 0.144509 13.0058 0.433526C14.027 0.703275 14.8844 1.09827 15.578 1.6185C16.2717 2.13873 16.869 2.74566 17.3699 3.43931L13.7283 6.93642C13.3044 6.53179 12.8613 6.20424 12.3988 5.95376C11.9364 5.68401 11.4547 5.49133 10.9538 5.37572C10.4721 5.24085 9.99037 5.17341 9.50867 5.17341C9.06551 5.17341 8.68979 5.21195 8.3815 5.28902C8.07322 5.34682 7.83237 5.45279 7.65896 5.60694C7.48555 5.74181 7.39884 5.93449 7.39884 6.18497C7.39884 6.43545 7.50482 6.6474 7.71676 6.82081C7.94798 6.97495 8.22736 7.10983 8.55491 7.22543C8.90173 7.34104 9.23892 7.43738 9.56647 7.51445C9.91329 7.57225 10.2023 7.62042 10.4335 7.65896C11.4933 7.85164 12.4663 8.12139 13.3526 8.46821C14.2389 8.79576 15.0096 9.21965 15.6647 9.73988C16.3391 10.2408 16.8497 10.8767 17.1965 11.6474C17.5626 12.3988 17.7457 13.2948 17.7457 14.3353C17.7457 15.8189 17.3699 17.0617 16.6185 18.0636C15.8863 19.0655 14.894 19.8266 13.6416 20.3468C12.3892 20.8478 10.9923 21.0983 9.45087 21.0983Z" fill="white"/>
</svg>
